<svg
  xmlns="http://www.w3.org/2000/svg"
  xml:space="preserve"
  viewBox="0 0 560 528"
  id="icon-whereby"
>
  <path
    d="M237.567 418.962c-3.933 1.021-4.57-1.913-5.471-4.064-5.897-14.08-11.64-28.222-17.49-42.321-9.278-22.366-18.647-44.693-27.889-67.074-8.1-19.617-15.994-39.319-24.13-58.92-9.794-23.6-19.312-47.327-29.809-70.612-5.447-12.085-12.455-23.563-24.343-30.873-1.45-.892-1.947-2.273-1.504-3.882.473-1.72 2.023-1.454 3.3-1.524 1.496-.082 2.999-.045 4.499-.045 48.663-.006 97.326.115 145.988-.1 12.298-.055 23.16-4.035 30.474-14.885 1.974-2.927 4.185-2.48 5.704 1.159 4.216 10.105 8.267 20.279 12.476 30.386 4.517 10.846 9.14 21.647 14.15 33.492 3.629-6.48 6.615-12.165 9.923-17.655 9.199-15.268 20.362-28.874 35.714-38.283 17.971-11.015 36.871-13.048 55.841-2.714 14.054 7.655 20.555 20.918 23.227 36.009 2.976 16.805 1.178 33.386-4.14 49.612-8.28 25.257-18.851 49.627-28.65 74.294C399.136 332 382.68 372.978 366.286 413.98a95.397 95.397 0 0 1-.947 2.304c-.765 1.777-1.755 3.08-4.04 3.038-2.247-.042-2.675-1.664-3.294-3.164-5.121-12.417-10.186-24.857-15.327-37.265-9.334-22.53-18.778-45.016-28.04-67.576-5.088-12.396-9.846-24.93-15.84-37.805-5.192 12.436-10.188 24.293-15.096 36.186-8.477 20.541-16.885 41.112-25.352 61.659-5.94 14.416-11.943 28.807-17.88 43.225-.64 1.551-1.215 3.095-2.903 4.38M205.61 207.093c.594 1.546 1.16 3.104 1.785 4.637 14.043 34.385 28.069 68.777 42.16 103.142 2.655 6.476 5.574 12.844 8.468 19.486 2.203-1.833 2.928-3.644 3.693-5.515 9.23-22.573 18.365-45.188 27.925-67.622 1.845-4.33 1.503-7.79-.254-11.761-3.082-6.968-5.846-14.075-8.841-21.082-7.62-17.828-14.042-36.186-23.063-53.392-8.4-16.022-20.398-26.271-39.983-24.683-15.308 1.242-25.402 12.823-22.37 28.133 1.957 9.878 6.418 18.769 10.48 28.657m166.937 100.938c2.85 6.718 5.719 13.428 8.533 20.16.56 1.34.566 3.27 2.547 3.146 1.671-.104 2.372-1.694 2.893-3.112 8.816-23.968 20.085-47.059 26.543-71.86 4.6-17.666 7.768-35.505 2.698-53.837-4.156-15.028-17.02-26.413-31.309-27.194-19.272-1.053-35.91 4.325-49.423 18.648-6.326 6.706-6.753 7.147-3.281 15.466.638 1.53 1.178 3.099 1.813 4.63 12.891 31.086 25.79 62.169 38.986 93.953z"
  />
</svg>
