<svg xmlns="http://www.w3.org/2000/svg" width="0" height="0" aria-hidden="true">
<symbol xmlns="http://www.w3.org/2000/svg" id="handshake" viewBox="0 0 32 32"><g fill="currentColor"><path d="M30.48 7.62H32v1.52h-1.52ZM27.43 15.24v1.52h-3.04v1.53h3.04v9.14h-6.09v1.52h6.09v1.53H32V15.24h-4.57zM28.96 9.14h1.52v1.53h-1.52ZM27.43 7.62h1.53v1.52h-1.53ZM25.91 9.14h1.52v1.53h-1.52ZM25.91 1.53h1.52v1.52h-1.52ZM24.39 7.62h1.52v1.52h-1.52ZM22.86 15.24h1.53v1.52h-1.53ZM21.34 13.72h1.52v1.52h-1.52ZM21.34 22.86h-1.53v3.05h-3.04v3.04h1.52v-1.52h3.05v-4.57zM18.29 21.34h1.52v1.52h-1.52ZM18.29 3.05h1.52v1.52h-1.52ZM16.77 19.81h1.52v1.53h-1.52ZM16.77 16.76h1.52v1.53h-1.52ZM15.24 12.19h6.1v1.53h-6.1ZM16.77 4.57h1.52V6.1h-1.52ZM16.77 1.53h1.52v1.52h-1.52ZM15.24 24.38h1.53v1.53h-1.53ZM15.24 18.29h1.53v1.52h-1.53ZM15.24 3.05h1.53v1.52h-1.53ZM13.72 30.48H9.15V32h6.09v-1.52h1.53v-1.53h-3.05v1.53zM13.72 13.72h1.52v1.52h-1.52ZM12.19 27.43h1.53v1.52h-1.53ZM12.19 19.81h3.05v1.53h-3.05ZM12.19 15.24h1.53v1.52h-1.53ZM10.67 12.19h3.05v1.53h-3.05ZM10.67 25.91h1.52v1.52h-1.52Z"/><path d="M10.67 16.76h1.52v3.05h-1.52ZM10.67 6.1h1.52v1.52h-1.52ZM9.15 13.72h1.52v1.52H9.15ZM7.62 28.95h1.53v1.53H7.62ZM7.62 15.24h1.53v1.52H7.62ZM4.58 27.43v-9.14h3.04v-1.53H4.58v-1.52H0v15.24h4.58v-1.53h3.04v-1.52H4.58zM6.1 0h1.52v1.53H6.1ZM4.58 12.19v-1.52H6.1V9.14H4.58V7.62H3.05v1.52H1.53v1.53h1.52v1.52h1.53z"/></g></symbol>

<svg class="section-divider-svg-clip">
  <clipPath id="section-divider-left-curve" clipPathUnits="objectBoundingBox">
    <path
      class="section-divider-clip"
      d="M-1, 0.8260000000000001 L-1, 1 l0,0 c0.25,0 0.5,0 1,-0.174 l0,0.174l0,0 c0.25,0 0.5,0 1,-0.174 l0,0.174l0,0 c0.25,0 0.5,0 1,-0.174 l0,0.174 L2, -1 L-1, -1 z"
    ></path>
  </clipPath>
</svg>

<svg class="section-divider-svg-clip">
  <clipPath id="section-divider-lego-wave" clipPathUnits="objectBoundingBox">
    <path
      class="section-divider-clip"
      d="M-0.31000000000000005, 0.836 L-0.31000000000000005, 0.918 c0.135,-0.10496000000000001 0.135,-0.10496000000000001 0.27,0 s0.135,0.10496000000000001 0.27,0c0.135,-0.10496000000000001 0.135,-0.10496000000000001 0.27,0 s0.135,0.10496000000000001 0.27,0c0.135,-0.10496000000000001 0.135,-0.10496000000000001 0.27,0 s0.135,0.10496000000000001 0.27,0 L1, -1 L0, -1 z"
    ></path>
    <path class="section-divider-stroke" d="M-100,0.5 L-100,1.5 M-0.31000000000000005, 0.836 L-0.31000000000000005, 0.918 c0.135,-0.10496000000000001 0.135,-0.10496000000000001 0.27,0 s0.135,0.10496000000000001 0.27,0c0.135,-0.10496000000000001 0.135,-0.10496000000000001 0.27,0 s0.135,0.10496000000000001 0.27,0c0.135,-0.10496000000000001 0.135,-0.10496000000000001 0.27,0 s0.135,0.10496000000000001 0.27,0" vector-effect="non-scaling-stroke"></path>
  </clipPath>
</svg>

<symbol xmlns="http://www.w3.org/2000/svg" id="multiple-user" viewBox="0 0 32 32"><g fill="currentColor"><path d="M30.48 18.29H32v1.53h-1.52ZM27.43 16.77h3.05v1.52h-3.05ZM27.43 13.71h1.52v1.53h-1.52Z"/><path d="M22.86 15.24V12.2h-1.52v-1.52h-1.53V7.63h1.53V6.1h6.09v1.53h1.52v6.09h1.53V4.56h-1.53V3.04h-1.52V1.52h-6.09v1.52h-1.53v1.53h-1.52v4.57h-4.57V4.57h-1.53V3.04h-1.52V1.52h-6.1v1.52H3.05v1.53H1.53v9.14h1.52V7.63h1.52V6.1h6.1v1.53h1.52v3.04h-1.52v1.53H9.15v3.05H4.57v1.52h4.58v6.1h1.52v-7.62h1.52v-1.53h7.62v1.53h1.53v7.61h1.52v-6.09h4.57v-1.52h-4.57zM24.38 28.95h1.53v1.52h-1.53ZM22.86 27.43h1.52v1.52h-1.52ZM19.81 25.9h3.05v1.54h-3.05Z"/><path d="M19.81 22.86h1.53v1.53h-1.53ZM18.29 16.77h1.52v3.05h-1.52ZM12.19 24.39h7.62v1.52h-7.62ZM13.72 21.34h4.57v1.52h-4.57ZM12.19 16.77h1.53v3.05h-1.53ZM10.67 22.86h1.52v1.53h-1.52Z"/><path d="M9.15 25.9h3.04v1.54H9.15ZM7.62 27.43h1.53v1.52H7.62ZM6.1 28.95h1.52v1.52H6.1ZM3.05 13.71h1.52v1.53H3.05ZM1.53 16.77h3.04v1.52H1.53ZM0 18.29h1.53v1.53H0Z"/></g></symbol>

<svg class="section-divider-svg-clip">
  <clipPath id="section-divider-right-curve" clipPathUnits="objectBoundingBox">
    <path
      class="section-divider-clip"
      d="M 1 0.826 L 1 1 l 0 0 c -0.25 0 -0.5 0 -1 -0.174 l 0 0.174 l 0 0 c -0.25 0 -0.5 0 -1 -0.174 l 0 0.174 l 0 0 c -0.25 0 -0.5 0 -1 -0.174 l 0 0.174 L -2 -1 L 1 -1 z"
    ></path>
  </clipPath>
</svg>

<svg class="section-divider-svg-clip">
  <clipPath id="section-divider-rounded" clipPathUnits="objectBoundingBox">
    <path
      class="section-divider-clip"
      d="M-1.0014999999999998, 0.911 L-1.0014999999999998, 0.911 l0,0 c0,0 0.25025,0.089 0.5005,0.089 s0.5005,-0.089 0.5005,-0.089 l0,0l0,0 c0,0 0.25025,0.089 0.5005,0.089 s0.5005,-0.089 0.5005,-0.089 l0,0l0,0 c0,0 0.25025,0.089 0.5005,0.089 s0.5005,-0.089 0.5005,-0.089 l0,0 L1, -1 L0, -1 z"
    ></path>
  </clipPath>
</svg>

<symbol xmlns="http://www.w3.org/2000/svg" id="search-remove" viewBox="0 0 24 24"><g fill="currentColor"><path d="M17.71 15.43h-1.13v1.14h-1.15v1.14h-2.28v1.14h2.28V20h1.15v1.15h1.14v1.14h1.14v1.15h3.43v-1.15h1.14v-3.42h-1.14v-1.14h-1.15v-1.15H20v-1.14h-1.14v-2.29h-1.14Zm1.14 2.29H20v1.14h1.14V20h1.15v1.14h-1.15V20H20v-1.14h-1.14ZM18.86 7.43H20v5.71h-1.14ZM17.71 5.14h1.14v2.29h-1.14ZM16.58 4h1.14v1.14h-1.14ZM15.43 2.86h1.15V4h-1.15ZM6.29 15.43h1.14v-1.15h1.14v-1.14h1.14V12h1.15v1.14H12v1.14h1.15v1.15h1.14v-1.15h1.14v-1.14h-1.14V12h-1.14v-1.15H12V9.71h1.15V8.57h1.14V7.42h1.14V6.28h-1.14V5.14h-1.14v1.14H12v1.14h-1.14v1.15H9.71V7.42H8.57V6.28H7.43V5.14H6.28v1.14H5.14v1.14h1.14v1.15h1.15v1.14h1.14v1.14H7.43V12H6.28v1.14H5.14v1.14h1.14v1.15zM13.15 1.71h2.28v1.15h-2.28ZM7.43 18.86h5.72V20H7.43ZM7.43.57h5.72v1.14H7.43ZM5.15 17.71h2.28v1.14H5.15ZM5.15 1.71h2.28v1.15H5.15ZM4 16.57h1.15v1.14H4ZM4 2.86h1.15V4H4ZM2.86 15.43H4v1.14H2.85ZM2.86 4H4v1.14H2.85ZM1.72 13.14h1.14v2.29H1.72ZM1.72 5.14h1.14v2.29H1.72ZM.57 7.43h1.15v5.71H.57Z"/></g></symbol>

<svg class="section-divider-svg-clip">
  <clipPath id="section-divider-wave" clipPathUnits="objectBoundingBox">
    <path
      class="section-divider-clip"
      d="M-1.006, 0.92 L-1.006, 0.96 c0.251,-0.0512 0.251,-0.0512 0.502,0 s0.251,0.0512 0.502,0c0.251,-0.0512 0.251,-0.0512 0.502,0 s0.251,0.0512 0.502,0c0.251,-0.0512 0.251,-0.0512 0.502,0 s0.251,0.0512 0.502,0 L1, -1 L0, -1 z"
    ></path>
  </clipPath>
</svg>

<svg class="section-divider-svg-clip">
  <clipPath id="section-divider-zigzag" clipPathUnits="objectBoundingBox">
    <path
      class="section-divider-clip"
      d="M-0.025000000000000022, 0.9359999999999999 L-0.025000000000000022, 1 l0,0 l0.025,-0.064 l0.025,0.064l0,0 l0.025,-0.064 l0.025,0.064l0,0 l0.025,-0.064 l0.025,0.064l0,0 l0.025,-0.064 l0.025,0.064l0,0 l0.025,-0.064 l0.025,0.064l0,0 l0.025,-0.064 l0.025,0.064l0,0 l0.025,-0.064 l0.025,0.064l0,0 l0.025,-0.064 l0.025,0.064l0,0 l0.025,-0.064 l0.025,0.064l0,0 l0.025,-0.064 l0.025,0.064l0,0 l0.025,-0.064 l0.025,0.064l0,0 l0.025,-0.064 l0.025,0.064l0,0 l0.025,-0.064 l0.025,0.064l0,0 l0.025,-0.064 l0.025,0.064l0,0 l0.025,-0.064 l0.025,0.064l0,0 l0.025,-0.064 l0.025,0.064l0,0 l0.025,-0.064 l0.025,0.064l0,0 l0.025,-0.064 l0.025,0.064l0,0 l0.025,-0.064 l0.025,0.064l0,0 l0.025,-0.064 l0.025,0.064l0,0 l0.025,-0.064 l0.025,0.064 L1, -1 L0, -1 z"
    ></path>
  </clipPath>
</svg>
</svg>
