<svg class="section-divider-svg-clip">
  <clipPath id="section-divider-lego-wave" clipPathUnits="objectBoundingBox">
    <path
      class="section-divider-clip"
      d="M-0.31000000000000005, 0.836 L-0.31000000000000005, 0.918 c0.135,-0.10496000000000001 0.135,-0.10496000000000001 0.27,0 s0.135,0.10496000000000001 0.27,0c0.135,-0.10496000000000001 0.135,-0.10496000000000001 0.27,0 s0.135,0.10496000000000001 0.27,0c0.135,-0.10496000000000001 0.135,-0.10496000000000001 0.27,0 s0.135,0.10496000000000001 0.27,0 L1, -1 L0, -1 z"
    ></path>
    <path class="section-divider-stroke" d="M-100,0.5 L-100,1.5 M-0.31000000000000005, 0.836 L-0.31000000000000005, 0.918 c0.135,-0.10496000000000001 0.135,-0.10496000000000001 0.27,0 s0.135,0.10496000000000001 0.27,0c0.135,-0.10496000000000001 0.135,-0.10496000000000001 0.27,0 s0.135,0.10496000000000001 0.27,0c0.135,-0.10496000000000001 0.135,-0.10496000000000001 0.27,0 s0.135,0.10496000000000001 0.27,0" vector-effect="non-scaling-stroke"></path>
  </clipPath>
</svg>
