<svg class="section-divider-svg-clip">
  <clipPath id="section-divider-zigzag" clipPathUnits="objectBoundingBox">
    <path
      class="section-divider-clip"
      d="M-0.025000000000000022, 0.9359999999999999 L-0.025000000000000022, 1 l0,0 l0.025,-0.064 l0.025,0.064l0,0 l0.025,-0.064 l0.025,0.064l0,0 l0.025,-0.064 l0.025,0.064l0,0 l0.025,-0.064 l0.025,0.064l0,0 l0.025,-0.064 l0.025,0.064l0,0 l0.025,-0.064 l0.025,0.064l0,0 l0.025,-0.064 l0.025,0.064l0,0 l0.025,-0.064 l0.025,0.064l0,0 l0.025,-0.064 l0.025,0.064l0,0 l0.025,-0.064 l0.025,0.064l0,0 l0.025,-0.064 l0.025,0.064l0,0 l0.025,-0.064 l0.025,0.064l0,0 l0.025,-0.064 l0.025,0.064l0,0 l0.025,-0.064 l0.025,0.064l0,0 l0.025,-0.064 l0.025,0.064l0,0 l0.025,-0.064 l0.025,0.064l0,0 l0.025,-0.064 l0.025,0.064l0,0 l0.025,-0.064 l0.025,0.064l0,0 l0.025,-0.064 l0.025,0.064l0,0 l0.025,-0.064 l0.025,0.064l0,0 l0.025,-0.064 l0.025,0.064 L1, -1 L0, -1 z"
    ></path>
  </clipPath>
</svg>
